<svg xmlns="http://www.w3.org/2000/svg" viewBox="0 0 164.97 164.97"><defs><style>.cls-1{fill:#ffffff;}</style></defs><g id="Ebene_2" data-name="Ebene 2"><g id="Ebene_1-2" data-name="Ebene 1"><path class="cls-1" d="M136.5,128.15a7.87,7.87,0,0,0,1,0h0a26,26,0,0,0,4-.49,25.33,25.33,0,0,0,12.83-7l2.46-2.51,4-4-.09-9.2a25.23,25.23,0,0,0-4.36-14h0L165,82l-9.12-9a25.07,25.07,0,0,0,4.35-14.42l0-3.53h0l-.06-5.66-4-4h0L153.55,43a25.26,25.26,0,0,0-13-6.8,25.86,25.86,0,0,0-4-.42c-.32,0-.64,0-1,0a25.23,25.23,0,0,0-9,1.77,24.92,24.92,0,0,0,1.56-9.6,23.43,23.43,0,0,0-.44-4,25.16,25.16,0,0,0-7.12-13.29L114,4.24l-5.68.06h0l-3.53,0A25.09,25.09,0,0,0,90.87,8.7L82,0,73,9.14h0A25,25,0,0,0,58.63,4.78l-3.52,0h0l-5.68,0-4,4.05L43,11.42a25.34,25.34,0,0,0-6.8,13h0a25.86,25.86,0,0,0-.42,4h0a25.21,25.21,0,0,0,1.75,10,25.12,25.12,0,0,0-9.06-1.59l-.53,0h0a23.44,23.44,0,0,0-4,.44h0a25.19,25.19,0,0,0-13.27,7.13L8.21,46.92l-4,4,0,5.66h0l0,3.52A25.11,25.11,0,0,0,9,74.49L0,83.61l8.87,8.7a25.1,25.1,0,0,0-4.09,14l0,3.52h0l.06,5.68L11.43,122a25.18,25.18,0,0,0,13.4,6.86h0a24.6,24.6,0,0,0,4,.36h.54a25.27,25.27,0,0,0,9-1.76,25,25,0,0,0-1.55,10h0a27,27,0,0,0,.5,4h0a25.28,25.28,0,0,0,7,12.83l2.52,2.47h0l4,4,9.18-.09A25.15,25.15,0,0,0,74.49,156L83.61,165l8.68-8.86h0a25.22,25.22,0,0,0,14,4.1l9.2-.09,4-4.05,2.47-2.51a25.23,25.23,0,0,0,6.85-13.41,22.56,22.56,0,0,0,.36-4,24.88,24.88,0,0,0-1.74-9.56A25.65,25.65,0,0,0,136.5,128.15Zm-25.39-5.85a21.09,21.09,0,0,1-5.1,14h0a21.28,21.28,0,0,1-20.62-21.05l-.26-27.13h0l20.64,20.26s0,0,.06.06A21.08,21.08,0,0,1,111.11,122.3ZM85,138a23.5,23.5,0,0,0,.15-2.92l-.07-6.8A25.29,25.29,0,0,0,102.48,140h0L91.92,150.78A21.22,21.22,0,0,1,85,138ZM90.57,14,101.36,24.6a25.28,25.28,0,0,0-17.13,12l-.07-6.8a21.66,21.66,0,0,0-.2-2.91A21.41,21.41,0,0,1,90.57,14Zm59.89,59.36h0A21.15,21.15,0,0,1,138,79.93a23.6,23.6,0,0,0-2.92-.15l-5.65,0h0a25.28,25.28,0,0,0,10.9-16.34h0Zm-9.64,27.52h0a25.21,25.21,0,0,0-11.34-16.67l5.68-.06a25.56,25.56,0,0,0,2.92-.2A21.27,21.27,0,0,1,151,90.59ZM136.75,60a21.28,21.28,0,0,1-19.5,20h0l-28.92.28,19-19.36a21.27,21.27,0,0,1,29.44-.9Zm-31.52-3.81h0L85,76.78l-.27-27.12A21.29,21.29,0,0,1,105,28.21h0a21.29,21.29,0,0,1,.26,27.95ZM79.83,35.51h0A25.18,25.18,0,0,0,63.48,24.62h0l9.91-10.11A21.17,21.17,0,0,1,79.92,27a23.5,23.5,0,0,0-.15,2.92ZM60,28.22h0A21.29,21.29,0,0,1,80,47.73v0l.28,28.88-19.36-19A21.31,21.31,0,0,1,60,28.22ZM76.19,80h0l-26.54.26A21.29,21.29,0,0,1,28.24,60.63h0a21.26,21.26,0,0,1,29,.73ZM24.7,64.16A25.22,25.22,0,0,0,36.64,80.74h0l-6.82.06A23.47,23.47,0,0,0,26.9,81a21.21,21.21,0,0,1-12.56-6.3Zm5.16,21,6.82-.07h0A25.2,25.2,0,0,0,25,102.49L14.2,91.92h0a21.21,21.21,0,0,1,12.74-6.87A23.5,23.5,0,0,0,29.86,85.2ZM28.65,106h0A21.29,21.29,0,0,1,49.7,85.4l27.12-.26h0l-20.2,20.59a21.3,21.3,0,0,1-28,.29Zm32.71,1.73,19-19.36h0l.28,28.89v0A21.29,21.29,0,0,1,61,137.19h0A21.29,21.29,0,0,1,61.36,107.73Zm19.38,21.79h0l.06,5.65a25.54,25.54,0,0,0,.2,2.91,21,21,0,0,1-6.3,12.55l-10.09-9.9A25.26,25.26,0,0,0,80.74,129.52Zm28-24.4L87.79,84.63l29.28-.28h0a21.26,21.26,0,0,1,20.13,20.2h0a21.28,21.28,0,0,1-28.46.63S108.7,105.14,108.69,105.12Zm44.72-11.33a21.18,21.18,0,0,1,3.23,11.07l.08,7.53-5.27,5.37a21.16,21.16,0,0,1-10,5.75h0l-.17-17.33h0l12.14-12.39Zm5.9-11.73-5.56,5.67a24.93,24.93,0,0,0-8.31-5.86,24.89,24.89,0,0,0,7.89-5.67h0Zm-8.56-36.18,5.37,5.26h0l.07,7.53a21.05,21.05,0,0,1-3.26,11.52h0L140.8,58.31h0l-.17-18h0A21.11,21.11,0,0,1,150.75,45.88Zm-15.11-6.09c.32,0,.65,0,1,0l.15,15.09a25.26,25.26,0,0,0-20.61-3.6l4.77-4.87a25.14,25.14,0,0,0,1.94-2.21l0,0A21,21,0,0,1,135.64,39.79Zm-17.86,3.58-4,4A25.39,25.39,0,0,0,110,28.13L124.12,28A21.17,21.17,0,0,1,120,41.36,22,22,0,0,0,117.78,43.37Zm-12.92-35,7.54-.07h0l5.37,5.27A21.14,21.14,0,0,1,123.61,24h0l-17,.16L93.8,11.57A21.27,21.27,0,0,1,104.86,8.34ZM82.06,5.67l5.67,5.56a24.79,24.79,0,0,0-5.86,8.31,24.9,24.9,0,0,0-5.68-7.88ZM45.87,14.24l5.27-5.38,7.53-.07a21.13,21.13,0,0,1,11.51,3.26h0L58.3,24.17l-18,.17A21.28,21.28,0,0,1,45.87,14.24Zm-6,14.12h0l15.07-.15h0a25.27,25.27,0,0,0-3.58,20.64l-4.88-4.79a23.07,23.07,0,0,0-2.2-1.92A21.14,21.14,0,0,1,39.82,28.36ZM28,40.85a4.61,4.61,0,0,1,.53,0A21.07,21.07,0,0,1,41.41,45a26.1,26.1,0,0,0,2,2.15L48.23,52a25.36,25.36,0,0,0-20.1,3.67h0L28,40.85ZM11.82,71.56A21.15,21.15,0,0,1,8.33,60.11l-.07-7.53,5.27-5.37A21.17,21.17,0,0,1,24,41.36L24.15,59,11.82,71.56Zm-6.15,12,5.86-6a25.14,25.14,0,0,0,8,5.51,25.2,25.2,0,0,0-8.21,6Zm8.56,35.54-5.37-5.27h0l-.08-7.53a21.2,21.2,0,0,1,3-11.11l12.83,12.58.16,17A21.07,21.07,0,0,1,14.23,119.1Zm15.11,6.09H28.8L28.67,111h0a25.17,25.17,0,0,0,14,4.08,24.9,24.9,0,0,0,5.3-.61l-3.95,4a23,23,0,0,0-1.91,2.19A21.1,21.1,0,0,1,29.34,125.19ZM45,123.59a28.45,28.45,0,0,0,2.16-2L52,116.74a25.27,25.27,0,0,0,4,20.55l-15.07.15A21.11,21.11,0,0,1,45,123.59Zm15.09,33.06-7.53.07h0l-5.37-5.27a21,21,0,0,1-5.73-10h0l18-.17,12.12,11.88A21,21,0,0,1,60.11,156.65Zm23.44,2.66-6-5.87a24.92,24.92,0,0,0,5.52-8,25.53,25.53,0,0,0,6,8.21Zm35.56-8.56-5.27,5.38-7.55.07a21.05,21.05,0,0,1-11.11-3h0l12.57-12.81,17-.17h0A21,21,0,0,1,119.11,150.75Zm6.06-14.57h0l-14.15.14A25.32,25.32,0,0,0,114.51,117l4,4a24.91,24.91,0,0,0,2.26,2A21.17,21.17,0,0,1,125.17,136.18ZM123.58,120a26.53,26.53,0,0,0-2-2.16l-4-4a25.27,25.27,0,0,0,19.71-4.17l.14,14.45c-.32,0-.64,0-1,0A21,21,0,0,1,123.6,120Z"/></g></g></svg>